<svg height="512pt" viewBox="0 0 512 512" width="512pt" xmlns="http://www.w3.org/2000/svg"><path d="m192 200c30.960938 0 56-25.039062 56-56 0-8.800781-7.199219-16-16-16s-16 7.199219-16 16c0 13.28125-10.71875 24-24 24h-8v-160h320v240h-320v-48zm0 0" fill="#656d78"/><path d="m464 288v24c13.28125 0 24 10.71875 24 24v40s-16 32-56 32-56-32-56-32v-40c0-26.558594 21.441406-48 48-48zm0 0" fill="#965353"/><path d="m432 408c40 0 56-32 56-32 0 22.320312-13.039062 41.601562-32 50.480469-7.28125 3.519531-15.441406 5.449219-24 5.449219s-16.71875-1.921876-24-5.449219c-18.960938-8.871094-32-28.160157-32-50.480469 0 0 16 32 56 32zm0 0" fill="#eac6bb"/><path d="m447.078125 406.320312c-5.621094 8.695313-13.605469 15.726563-23.078125 20.160157-2.550781 1.230469-5.246094 2.191406-8 3.023437 2.367188.710938 4.808594 1.25 7.28125 1.664063.292969.046875.582031.113281.878906.152343 2.558594.382813 5.167969.609376 7.832032.609376 8.558593 0 16.71875-1.921876 24-5.449219 18.960937-8.871094 32-28.160157 32-50.480469.007812 0-11.945313 23.785156-40.914063 30.320312zm0 0" fill="#d3b1a9"/><path d="m464 312v-24h-32v40c13.28125 0 24 10.71875 24 24v24c0 11.175781-3.273438 21.59375-8.921875 30.320312 28.96875-6.535156 40.921875-30.320312 40.921875-30.320312v-40c0-13.28125-10.71875-24-24-24zm0 0" fill="#844747"/><path d="m432 431.921875c8.558594 0 16.71875-1.921875 24-5.449219v29.527344h-48v-29.519531c7.28125 3.519531 15.441406 5.441406 24 5.441406zm0 0" fill="#f5f7fa"/><path d="m504 480v24h-144v-24c0-13.28125 10.71875-24 24-24h96c13.28125 0 24 10.71875 24 24zm0 0" fill="#e6e9ed"/><path d="m480 456h-32c13.28125 0 24 10.71875 24 24v24h32v-24c0-13.28125-10.71875-24-24-24zm0 0" fill="#ccd1d9"/><path d="m232 456v-24h48v24l-24 8zm0 0" fill="#eac6bb"/><path d="m328 352.320312v79.679688h-144v-79.679688c0-39.761718 32.238281-72 72-72s72 32.238282 72 72zm0 0" fill="#ffce54"/><path d="m256 280.320312c-5.503906 0-10.839844.671876-16 1.839844 32.046875 7.289063 56 35.902344 56 70.160156v79.679688h32v-79.679688c0-39.761718-32.238281-72-72-72zm0 0" fill="#f6bb42"/><path d="m328 480v24h-144v-24c0-13.28125 10.71875-24 24-24h24l24 8 24-8h24c13.28125 0 24 10.71875 24 24zm0 0" fill="#48cfad"/><path d="m304 456h-24l-2.273438.761719c10.488282 2.566406 18.273438 11.941406 18.273438 23.238281v24h32v-24c0-13.28125-10.71875-24-24-24zm0 0" fill="#37bc9b"/><path d="m152 504h-144v-24c0-13.28125 10.71875-24 24-24h96c13.28125 0 24 10.71875 24 24zm0 0" fill="#5d9cec"/><path d="m128 456h-32c13.28125 0 24 10.71875 24 24v24h32v-24c0-13.28125-10.71875-24-24-24zm0 0" fill="#4a89dc"/><path d="m80 431.921875c8.558594 0 16.71875-1.921875 24-5.449219v29.527344h-48v-29.519531c7.28125 3.519531 15.441406 5.441406 24 5.441406zm0 0" fill="#f5f7fa"/><path d="m80 431.921875c-8.558594 0-16.71875-1.921875-24-5.449219-18.960938-8.871094-32-28.152344-32-50.472656 0 0 16 32 56 32s56-32 56-32c0 22.320312-13.039062 41.601562-32 50.480469-7.28125 3.519531-15.441406 5.441406-24 5.441406zm0 0" fill="#eac6bb"/><path d="m136 344v32s-16 32-56 32-56-32-56-32v-32c0-30.960938 25.039062-56 56-56s56 25.039062 56 56zm0 0" fill="#656d78"/><path d="m95.078125 406.320312c-5.621094 8.695313-13.605469 15.726563-23.078125 20.160157-2.550781 1.230469-5.246094 2.191406-8 3.023437 2.367188.710938 4.808594 1.25 7.28125 1.664063.292969.046875.582031.113281.878906.152343 2.566406.375 5.175782.601563 7.839844.601563 8.558594 0 16.71875-1.921875 24-5.449219 18.960938-8.871094 32-28.160156 32-50.480468 0 .007812-11.953125 23.792968-40.921875 30.328124zm0 0" fill="#d3b1a9"/><path d="m80 288c-2.535156 0-5.023438.214844-7.472656.550781-.503906.074219-1.007813.152344-1.511719.226563-2.382813.390625-4.734375.878906-7.007813 1.558594-.007812 0-.007812 0-.007812 0 23.144531 6.871093 40 28.257812 40 53.65625v32c0 11.175781-3.273438 21.59375-8.921875 30.320312 28.96875-6.527344 40.921875-30.3125 40.921875-30.3125v-32c0-30.960938-25.039062-56-56-56zm0 0" fill="#434a54"/><path d="m96 151.921875c8.558594 0 16.71875-1.921875 24-5.449219v21.527344l-8 8-16-8-16 8-8-8v-21.519531c7.28125 3.519531 15.441406 5.441406 24 5.441406zm0 0" fill="#f5f7fa"/><path d="m96 168 16 8 8-8h72c13.28125 0 24-10.71875 24-24 0-8.800781 7.199219-16 16-16s16 7.199219 16 16c0 30.960938-25.039062 56-56 56h-40v48h-144v-48c0-17.679688 14.320312-32 32-32h32l8 8zm0 0" fill="#e6e9ed"/><path d="m344 40c30.960938 0 56 25.039062 56 56 0 15.441406-6.238281 29.519531-16.398438 39.601562l-28.320312-28.320312c2.878906-2.882812 4.71875-6.882812 4.71875-11.28125 0-8.800781-7.199219-16-16-16zm0 0" fill="#a0d468"/><path d="m355.28125 107.28125 28.320312 28.320312c-10.082031 10.160157-24.160156 16.398438-39.601562 16.398438-30.960938 0-56-25.039062-56-56s25.039062-56 56-56v40c-8.800781 0-16 7.199219-16 16s7.199219 16 16 16c4.398438 0 8.398438-1.839844 11.28125-4.71875zm0 0" fill="#5d9cec"/><path d="m152 68v10.960938c-13.761719-17.921876-22.078125-21.199219-32-19.121094l15.921875-32.558594c10 10.640625 16.078125 25.039062 16.078125 40.71875zm0 0" fill="#edab37"/><path d="m40 73.121094c-2.558594-.320313-5.199219-.640625-8-1.121094v-4c0-33.121094 26.878906-60 60-60 17.441406 0 33.121094 7.441406 43.921875 19.28125l-15.921875 32.558594c-14.960938 3.121094-33.519531 18.640625-80 13.28125zm0 0" fill="#ffce54"/><path d="m92 8c-2.625 0-5.199219.207031-7.726562.550781-.378907.050781-.738282.121094-1.105469.167969-2.441407.386719-4.847657.867188-7.183594 1.511719 0 0-.007813 0-.015625 0 10.910156 3.015625 20.582031 8.96875 27.953125 17.050781 8.261719 8.796875 13.789063 20.175781 15.476563 32.710938.203124-.039063.410156-.113282.601562-.152344l15.921875-32.558594c-10.800781-11.839844-26.480469-19.28125-43.921875-19.28125zm0 0" fill="#f6bb42"/><path d="m40 73.121094c46.480469 5.359375 65.039062-10.160156 80-13.273438 9.921875-2.085937 18.238281 1.191406 32 19.121094v17.03125c0 22.320312-13.039062 41.601562-32 50.480469-7.28125 3.519531-15.441406 5.449219-24 5.449219s-16.71875-1.921876-24-5.449219c-18.960938-8.878907-32-28.160157-32-50.480469zm0 0" fill="#eac6bb"/><path d="m120 59.839844v36.160156c0 22.320312-13.039062 41.601562-32 50.480469-2.550781 1.230469-5.246094 2.191406-8 3.023437 5.089844 1.527344 10.449219 2.425782 16 2.425782 8.558594 0 16.71875-1.921876 24-5.449219 18.960938-8.871094 32-28.160157 32-50.480469v-17.039062c-13.761719-17.921876-22.078125-21.199219-32-19.121094zm0 0" fill="#d3b1a9"/><path d="m376 216h-64c-4.425781 0-8-3.574219-8-8s3.574219-8 8-8h64c4.425781 0 8 3.574219 8 8s-3.574219 8-8 8zm0 0"/><path d="m408 192h-128c-4.425781 0-8-3.574219-8-8s3.574219-8 8-8h128c4.425781 0 8 3.574219 8 8s-3.574219 8-8 8zm0 0"/><path d="m383.59375 143.59375c-2.050781 0-4.097656-.785156-5.65625-2.347656l-28.28125-28.277344c-3.128906-3.128906-3.128906-8.183594 0-11.3125s8.183594-3.128906 11.3125 0l28.277344 28.28125c3.128906 3.125 3.128906 8.183594 0 11.308594-1.558594 1.570312-3.605469 2.347656-5.652344 2.347656zm0 0"/><path d="m344 88c-4.425781 0-8-3.574219-8-8v-40c0-4.425781 3.574219-8 8-8s8 3.574219 8 8v40c0 4.425781-3.574219 8-8 8zm0 0"/><path d="m344 120c-13.230469 0-24-10.769531-24-24s10.769531-24 24-24 24 10.769531 24 24-10.769531 24-24 24zm0-32c-4.414062 0-8 3.585938-8 8s3.585938 8 8 8 8-3.585938 8-8-3.585938-8-8-8zm0 0"/><path d="m344 160c-35.289062 0-64-28.710938-64-64s28.710938-64 64-64 64 28.710938 64 64-28.710938 64-64 64zm0-112c-26.472656 0-48 21.527344-48 48s21.527344 48 48 48 48-21.527344 48-48-21.527344-48-48-48zm0 0"/><path d="m504 256h-320c-4.425781 0-8-3.574219-8-8v-48c0-4.425781 3.574219-8 8-8s8 3.574219 8 8v40h304v-224h-304v152c0 4.425781-3.574219 8-8 8s-8-3.574219-8-8v-160c0-4.425781 3.574219-8 8-8h320c4.425781 0 8 3.574219 8 8v240c0 4.425781-3.574219 8-8 8zm0 0"/><path d="m40 256c-4.425781 0-8-3.574219-8-8v-40c0-4.425781 3.574219-8 8-8s8 3.574219 8 8v40c0 4.425781-3.574219 8-8 8zm0 0"/><path d="m72 176.015625h-32c-4.425781 0-8-3.574219-8-8 0-4.421875 3.574219-8 8-8h32c4.425781 0 8 3.578125 8 8 0 4.425781-3.574219 8-8 8zm0 0"/><path d="m8 208c-4.425781 0-8-3.574219-8-8 0-22.054688 17.945312-40 40-40 4.425781 0 8 3.574219 8 8s-3.574219 8-8 8c-13.230469 0-24 10.769531-24 24 0 4.425781-3.574219 8-8 8zm0 0"/><path d="m8 256c-4.425781 0-8-3.574219-8-8v-48c0-4.425781 3.574219-8 8-8s8 3.574219 8 8v48c0 4.425781-3.574219 8-8 8zm0 0"/><path d="m152 256c-4.425781 0-8-3.574219-8-8v-48c0-4.425781 3.574219-8 8-8s8 3.574219 8 8v48c0 4.425781-3.574219 8-8 8zm0 0"/><path d="m192 208h-40c-4.425781 0-8-3.574219-8-8s3.574219-8 8-8h40c4.425781 0 8 3.574219 8 8s-3.574219 8-8 8zm0 0"/><path d="m248 152c-4.425781 0-8-3.574219-8-8 0-4.414062-3.585938-8-8-8s-8 3.585938-8 8c0 4.425781-3.574219 8-8 8s-8-3.574219-8-8c0-13.230469 10.769531-24 24-24s24 10.769531 24 24c0 4.425781-3.574219 8-8 8zm0 0"/><path d="m192 208c-4.425781 0-8-3.574219-8-8s3.574219-8 8-8c26.472656 0 48-21.527344 48-48 0-4.425781 3.574219-8 8-8s8 3.574219 8 8c0 35.289062-28.710938 64-64 64zm0 0"/><path d="m192 176c-4.425781 0-8-3.574219-8-8s3.574219-8 8-8c8.824219 0 16-7.175781 16-16 0-4.425781 3.574219-8 8-8s8 3.574219 8 8c0 17.648438-14.351562 32-32 32zm0 0"/><path d="m488.015625 344.007812c-4.421875 0-8-3.574218-8-8 0-8.832031-7.183594-16.007812-16.015625-16.007812-4.425781 0-8-3.574219-8-8s3.574219-8 8-8c17.65625 0 32.015625 14.359375 32.015625 32.007812 0 4.425782-3.574219 8-8 8zm0 0"/><path d="m464 320c-4.425781 0-8-3.574219-8-8v-24c0-4.425781 3.574219-8 8-8s8 3.574219 8 8v24c0 4.425781-3.574219 8-8 8zm0 0"/><path d="m376 344c-4.425781 0-8-3.574219-8-8 0-30.871094 25.128906-56 56-56 4.425781 0 8 3.574219 8 8s-3.574219 8-8 8c-22.054688 0-40 17.945312-40 40 0 4.425781-3.574219 8-8 8zm0 0"/><path d="m464 296h-40c-4.425781 0-8-3.574219-8-8s3.574219-8 8-8h40c4.425781 0 8 3.574219 8 8s-3.574219 8-8 8zm0 0"/><path d="m432 416c-44.433594 0-62.414062-34.9375-63.160156-36.425781-1.976563-3.949219-.375-8.757813 3.574218-10.734375 3.945313-1.953125 8.738282-.382813 10.722657 3.542968.597656 1.160157 14.566406 27.617188 48.863281 27.617188 34.65625 0 48.703125-27.304688 48.839844-27.574219 1.984375-3.953125 6.777344-5.539062 10.734375-3.578125 3.953125 1.976563 5.554687 6.785156 3.578125 10.738282-.738282 1.476562-18.71875 36.414062-63.152344 36.414062zm0 0"/><path d="m376 384c-4.425781 0-8-3.574219-8-8v-40.03125c0-4.425781 3.574219-8 8-8s8 3.574219 8 8v40.03125c0 4.425781-3.574219 8-8 8zm0 0"/><path d="m488 384c-4.425781 0-8-3.574219-8-8v-40.03125c0-4.425781 3.574219-8 8-8s8 3.574219 8 8v40.03125c0 4.425781-3.574219 8-8 8zm0 0"/><path d="m360 487.960938c-4.425781 0-8-3.578126-8-8 0-17.640626 14.351562-31.992188 32-31.992188 4.425781 0 8 3.574219 8 8 0 4.421875-3.574219 8-8 8-8.824219 0-16 7.167969-16 15.992188 0 4.421874-3.574219 8-8 8zm0 0"/><path d="m408 464.015625h-24c-4.425781 0-8-3.574219-8-8 0-4.421875 3.574219-8 8-8h24c4.425781 0 8 3.578125 8 8 0 4.425781-3.574219 8-8 8zm0 0"/><path d="m360 512c-4.425781 0-8-3.574219-8-8v-24.039062c0-4.425782 3.574219-8 8-8s8 3.574218 8 8v24.039062c0 4.425781-3.574219 8-8 8zm0 0"/><path d="m504 487.960938c-4.425781 0-8-3.578126-8-8 0-8.824219-7.175781-15.992188-16-15.992188-4.425781 0-8-3.578125-8-8 0-4.425781 3.574219-8 8-8 17.648438 0 32 14.351562 32 31.992188 0 4.421874-3.574219 8-8 8zm0 0"/><path d="m480 464.015625h-24c-4.425781 0-8-3.574219-8-8 0-4.421875 3.574219-8 8-8h24c4.425781 0 8 3.578125 8 8 0 4.425781-3.574219 8-8 8zm0 0"/><path d="m504 512c-4.425781 0-8-3.574219-8-8v-24.039062c0-4.425782 3.574219-8 8-8s8 3.574218 8 8v24.039062c0 4.425781-3.574219 8-8 8zm0 0"/><path d="m504 512h-144c-4.425781 0-8-3.574219-8-8s3.574219-8 8-8h144c4.425781 0 8 3.574219 8 8s-3.574219 8-8 8zm0 0"/><path d="m408 464.015625c-4.425781 0-8-3.574219-8-8v-29.472656c0-4.421875 3.574219-8 8-8s8 3.578125 8 8v29.472656c0 4.425781-3.574219 8-8 8zm0 0"/><path d="m456 463.960938c-4.425781 0-8-3.578126-8-8v-29.417969c0-4.421875 3.574219-8 8-8s8 3.578125 8 8v29.417969c0 4.421874-3.574219 8-8 8zm0 0"/><path d="m432 439.9375c-35.289062 0-64-28.707031-64-63.976562 0-4.425782 3.574219-8 8-8s8 3.574218 8 8c0 26.453124 21.527344 47.976562 48 47.976562s48-21.523438 48-47.976562c0-4.425782 3.574219-8 8-8s8 3.574218 8 8c0 35.269531-28.710938 63.976562-64 63.976562zm0 0"/><path d="m456 463.960938h-48c-4.425781 0-8-3.578126-8-8 0-4.425782 3.574219-8 8-8h48c4.425781 0 8 3.574218 8 8 0 4.421874-3.574219 8-8 8zm0 0"/><path d="m80 416c-44.433594 0-62.414062-34.9375-63.160156-36.425781-1.976563-3.949219-.375-8.757813 3.574218-10.734375 3.9375-1.953125 8.738282-.382813 10.722657 3.542968.597656 1.160157 14.566406 27.617188 48.863281 27.617188 34.65625 0 48.703125-27.304688 48.839844-27.574219 1.976562-3.953125 6.785156-5.539062 10.734375-3.578125 3.953125 1.976563 5.554687 6.785156 3.578125 10.738282-.738282 1.476562-18.71875 36.414062-63.152344 36.414062zm0 0"/><path d="m24 384c-4.425781 0-8-3.574219-8-8v-32.03125c0-4.425781 3.574219-8 8-8s8 3.574219 8 8v32.03125c0 4.425781-3.574219 8-8 8zm0 0"/><path d="m136 384c-4.425781 0-8-3.574219-8-8v-32.03125c0-4.425781 3.574219-8 8-8s8 3.574219 8 8v32.03125c0 4.425781-3.574219 8-8 8zm0 0"/><path d="m8 487.960938c-4.425781 0-8-3.578126-8-8 0-17.640626 14.351562-31.992188 32-31.992188 4.425781 0 8 3.574219 8 8 0 4.421875-3.574219 8-8 8-8.824219 0-16 7.167969-16 15.992188 0 4.421874-3.574219 8-8 8zm0 0"/><path d="m56 464.015625h-24c-4.425781 0-8-3.574219-8-8 0-4.421875 3.574219-8 8-8h24c4.425781 0 8 3.578125 8 8 0 4.425781-3.574219 8-8 8zm0 0"/><path d="m8 512c-4.425781 0-8-3.574219-8-8v-24.039062c0-4.425782 3.574219-8 8-8s8 3.574218 8 8v24.039062c0 4.425781-3.574219 8-8 8zm0 0"/><path d="m152 487.960938c-4.425781 0-8-3.578126-8-8 0-8.824219-7.175781-15.992188-16-15.992188-4.425781 0-8-3.578125-8-8 0-4.425781 3.574219-8 8-8 17.648438 0 32 14.351562 32 31.992188 0 4.421874-3.574219 8-8 8zm0 0"/><path d="m128 464.015625h-24c-4.425781 0-8-3.574219-8-8 0-4.421875 3.574219-8 8-8h24c4.425781 0 8 3.578125 8 8 0 4.425781-3.574219 8-8 8zm0 0"/><path d="m152 512c-4.425781 0-8-3.574219-8-8v-24.039062c0-4.425782 3.574219-8 8-8s8 3.574218 8 8v24.039062c0 4.425781-3.574219 8-8 8zm0 0"/><path d="m152 512h-144c-4.425781 0-8-3.574219-8-8s3.574219-8 8-8h144c4.425781 0 8 3.574219 8 8s-3.574219 8-8 8zm0 0"/><path d="m56 464.015625c-4.425781 0-8-3.574219-8-8v-29.472656c0-4.421875 3.574219-8 8-8s8 3.578125 8 8v29.472656c0 4.425781-3.574219 8-8 8zm0 0"/><path d="m104 463.960938c-4.425781 0-8-3.578126-8-8v-29.417969c0-4.421875 3.574219-8 8-8s8 3.578125 8 8v29.417969c0 4.421874-3.574219 8-8 8zm0 0"/><path d="m80 439.9375c-35.289062 0-64-28.707031-64-63.976562 0-4.425782 3.574219-8 8-8s8 3.574218 8 8c0 26.453124 21.527344 47.976562 48 47.976562s48-21.523438 48-47.976562c0-4.425782 3.574219-8 8-8s8 3.574218 8 8c0 35.269531-28.710938 63.976562-64 63.976562zm0 0"/><path d="m136 351.96875c-4.425781 0-8-3.578125-8-8 0-26.457031-21.527344-47.96875-48-47.96875s-48 21.511719-48 47.96875c0 4.421875-3.574219 8-8 8s-8-3.578125-8-8c0-35.273438 28.710938-63.96875 64-63.96875s64 28.695312 64 63.96875c0 4.421875-3.574219 8-8 8zm0 0"/><path d="m104 463.960938h-48c-4.425781 0-8-3.578126-8-8 0-4.425782 3.574219-8 8-8h48c4.425781 0 8 3.574218 8 8 0 4.421874-3.574219 8-8 8zm0 0"/><path d="m328 440c-4.425781 0-8-3.574219-8-8v-79.664062c0-4.425782 3.574219-8 8-8s8 3.574218 8 8v79.664062c0 4.425781-3.574219 8-8 8zm0 0"/><path d="m328 440h-144c-4.425781 0-8-3.574219-8-8s3.574219-8 8-8h144c4.425781 0 8 3.574219 8 8s-3.574219 8-8 8zm0 0"/><path d="m184 440c-4.425781 0-8-3.574219-8-8v-79.664062c0-4.425782 3.574219-8 8-8s8 3.574218 8 8v79.664062c0 4.425781-3.574219 8-8 8zm0 0"/><path d="m328 360.335938c-4.425781 0-8-3.574219-8-8 0-35.289063-28.710938-64-64-64s-64 28.710937-64 64c0 4.425781-3.574219 8-8 8s-8-3.574219-8-8c0-44.113282 35.886719-80 80-80s80 35.886718 80 80c0 4.425781-3.574219 8-8 8zm0 0"/><path d="m184 487.960938c-4.425781 0-8-3.578126-8-8 0-17.640626 14.351562-31.992188 32-31.992188 4.425781 0 8 3.574219 8 8 0 4.421875-3.574219 8-8 8-8.824219 0-16 7.167969-16 15.992188 0 4.421874-3.574219 8-8 8zm0 0"/><path d="m232 464.015625h-24c-4.425781 0-8-3.574219-8-8 0-4.421875 3.574219-8 8-8h24c4.425781 0 8 3.578125 8 8 0 4.425781-3.574219 8-8 8zm0 0"/><path d="m184 512c-4.425781 0-8-3.574219-8-8v-24.039062c0-4.425782 3.574219-8 8-8s8 3.574218 8 8v24.039062c0 4.425781-3.574219 8-8 8zm0 0"/><path d="m328 487.960938c-4.425781 0-8-3.578126-8-8 0-8.824219-7.175781-15.992188-16-15.992188-4.425781 0-8-3.578125-8-8 0-4.425781 3.574219-8 8-8 17.648438 0 32 14.351562 32 31.992188 0 4.421874-3.574219 8-8 8zm0 0"/><path d="m304 464.015625h-24c-4.425781 0-8-3.574219-8-8 0-4.421875 3.574219-8 8-8h24c4.425781 0 8 3.578125 8 8 0 4.425781-3.574219 8-8 8zm0 0"/><path d="m328 512c-4.425781 0-8-3.574219-8-8v-24.039062c0-4.425782 3.574219-8 8-8s8 3.574218 8 8v24.039062c0 4.425781-3.574219 8-8 8zm0 0"/><path d="m328 512h-144c-4.425781 0-8-3.574219-8-8s3.574219-8 8-8h144c4.425781 0 8 3.574219 8 8s-3.574219 8-8 8zm0 0"/><path d="m232 464.015625c-4.425781 0-8-3.574219-8-8v-13.472656c0-4.421875 3.574219-8 8-8s8 3.578125 8 8v13.472656c0 4.425781-3.574219 8-8 8zm0 0"/><path d="m280 463.960938c-4.425781 0-8-3.578126-8-8v-13.417969c0-4.421875 3.574219-8 8-8s8 3.578125 8 8v13.417969c0 4.421874-3.574219 8-8 8zm0 0"/><path d="m256 471.960938c-.832031 0-1.6875-.136719-2.527344-.417969l-24-8c-4.183594-1.390625-6.457031-5.917969-5.058594-10.117188 1.402344-4.1875 5.882813-6.472656 10.121094-5.058593l24 8c4.183594 1.394531 6.457032 5.921874 5.058594 10.121093-1.121094 3.351563-4.242188 5.472657-7.59375 5.472657zm0 0"/><path d="m256 471.960938c-3.351562 0-6.472656-2.121094-7.585938-5.472657-1.398437-4.191406.867188-8.726562 5.058594-10.121093l24-8c4.230469-1.414063 8.71875.863281 10.121094 5.058593 1.398438 4.191407-.867188 8.726563-5.058594 10.117188l-24 8c-.847656.289062-1.703125.417969-2.535156.417969zm0 0"/><path d="m40 104c-4.425781 0-8-3.574219-8-8v-22.945312c0-4.421876 3.574219-8 8-8s8 3.578124 8 8v22.945312c0 4.425781-3.574219 8-8 8zm0 0"/><path d="m152 104c-4.425781 0-8-3.574219-8-8v-28.007812c0-4.425782 3.574219-8 8-8s8 3.574218 8 8v28.007812c0 4.425781-3.574219 8-8 8zm0 0"/><path d="m152 75.992188c-4.425781 0-8-3.578126-8-8 0-28.671876-23.328125-51.992188-52.007812-51.992188-28.671876 0-51.992188 23.320312-51.992188 51.992188 0 4.421874-3.574219 8-8 8s-8-3.578126-8-8c0-37.488282 30.503906-67.992188 67.992188-67.992188 37.503906 0 68.007812 30.503906 68.007812 67.992188 0 4.421874-3.574219 8-8 8zm0 0"/><path d="m152.007812 86.960938c-2.40625 0-4.785156-1.082032-6.359374-3.136719-15.449219-20.175781-19.640626-18.511719-35.3125-12.304688-15.015626 5.960938-37.726563 14.960938-79.582032 8.335938-4.363281-.6875-7.347656-4.777344-6.648437-9.144531.6875-4.359376 4.757812-7.367188 9.152343-6.648438 37.527344 5.90625 56.988282-1.78125 71.191407-7.414062 19.285156-7.648438 32.214843-10.871094 53.902343 17.449218 2.6875 3.503906 2.023438 8.527344-1.488281 11.214844-1.449219 1.113281-3.160156 1.648438-4.855469 1.648438zm0 0"/><path d="m119.992188 67.808594c-1.175782 0-2.382813-.265625-3.519532-.824219-3.960937-1.945313-5.59375-6.746094-3.648437-10.703125l16-32.570312c1.9375-3.96875 6.710937-5.605469 10.710937-3.65625 3.960938 1.945312 5.59375 6.746093 3.648438 10.707031l-16 32.566406c-1.390625 2.839844-4.238282 4.480469-7.191406 4.480469zm0 0"/><path d="m192 176-72.007812-.039062c-4.417969 0-7.992188-3.585938-7.992188-8.007813 0-4.417969 3.585938-7.992187 8-7.992187h.007812l72 .039062c4.417969 0 7.992188 3.585938 7.992188 8.007812 0 4.417969-3.585938 7.992188-8 7.992188zm0 0"/><path d="m72 176.015625c-4.425781 0-8-3.574219-8-8v-21.472656c0-4.421875 3.574219-8 8-8s8 3.578125 8 8v21.472656c0 4.425781-3.574219 8-8 8zm0 0"/><path d="m120 175.960938c-4.425781 0-8-3.578126-8-8v-21.417969c0-4.421875 3.574219-8 8-8s8 3.578125 8 8v21.417969c0 4.421874-3.574219 8-8 8zm0 0"/><path d="m96 159.9375c-35.289062 0-64-28.707031-64-63.976562 0-4.425782 3.574219-8 8-8s8 3.574218 8 8c0 26.453124 21.527344 47.976562 48 47.976562s48-21.523438 48-47.976562c0-4.425782 3.574219-8 8-8s8 3.574218 8 8c0 35.269531-28.710938 63.976562-64 63.976562zm0 0"/><path d="m80.007812 183.960938c-2.9375 0-5.761718-1.617188-7.167968-4.425782-1.976563-3.949218-.375-8.757812 3.574218-10.734375l16-8c3.953126-1.960937 8.761719-.375 10.738282 3.574219 1.976562 3.953125.375 8.761719-3.578125 10.738281l-16 8c-1.140625.574219-2.367188.847657-3.566407.847657zm0 0"/><path d="m112 183.960938c-2.046875 0-4.097656-.785157-5.65625-2.34375-3.128906-3.128907-3.128906-8.183594 0-11.3125l8-8c3.128906-3.128907 8.183594-3.128907 11.3125 0 3.128906 3.128906 3.128906 8.183593 0 11.3125l-8 8c-1.558594 1.558593-3.609375 2.34375-5.65625 2.34375zm0 0"/><path d="m80 183.960938c-2.046875 0-4.097656-.785157-5.65625-2.34375l-8-8c-3.128906-3.128907-3.128906-8.183594 0-11.3125 3.128906-3.128907 8.183594-3.128907 11.3125 0l8 8c3.128906 3.128906 3.128906 8.183593 0 11.3125-1.558594 1.558593-3.609375 2.34375-5.65625 2.34375zm0 0"/><path d="m111.992188 183.960938c-1.199219 0-2.425782-.273438-3.566407-.839844l-16-8c-3.953125-1.976563-5.554687-6.785156-3.578125-10.738282 1.984375-3.949218 6.792969-5.535156 10.738282-3.574218l16 8c3.949218 1.976562 5.550781 6.785156 3.574218 10.734375-1.40625 2.800781-4.230468 4.417969-7.167968 4.417969zm0 0"/><path d="m32 79.960938c-4.425781 0-8-3.578126-8-8v-3.96875c0-4.425782 3.574219-8 8-8s8 3.574218 8 8v3.96875c0 4.421874-3.574219 8-8 8zm0 0"/></svg>