<svg id="Layer_1" enable-background="new 0 0 512 512" height="512" viewBox="0 0 512 512" width="512" xmlns="http://www.w3.org/2000/svg"><path d="m78.653 420.956c27.443 0 49.769-22.326 49.769-49.769s-22.326-49.769-49.769-49.769-49.768 22.326-49.768 49.769 22.326 49.769 49.768 49.769z"/><path d="m79.136 420.957c-43.321-.258-79.143 34.693-79.136 78.678.001 6.801 5.598 12.365 12.398 12.365h132.544c6.843 0 12.391-5.548 12.391-12.391 0-43.372-34.955-78.394-78.197-78.652z"/><ellipse cx="255.987" cy="371.187" rx="49.769" ry="49.769" transform="matrix(.957 -.29 .29 .957 -96.581 90.108)"/><path d="m256.47 420.957c-43.321-.258-79.143 34.693-79.136 78.678.001 6.8 5.598 12.365 12.398 12.365h132.544c6.843 0 12.391-5.548 12.391-12.391 0-43.372-34.955-78.394-78.197-78.652z"/><path d="m383.552 371.187c0 27.443 22.326 49.769 49.768 49.769 27.443 0 49.769-22.326 49.769-49.769s-22.326-49.769-49.769-49.769-49.768 22.326-49.768 49.769z"/><path d="m433.803 420.957c-43.322-.258-79.144 34.693-79.137 78.678.001 6.8 5.598 12.365 12.398 12.365h132.546c6.843 0 12.391-5.548 12.391-12.391-.001-43.372-34.956-78.394-78.198-78.652z"/><path d="m95.333 291.418c8.284 0 15-6.716 15-15v-33.2h130.667v33.2c0 8.284 6.716 15 15 15s15-6.716 15-15v-33.2h130.667v33.2c0 8.284 6.716 15 15 15s15-6.716 15-15v-48.2c0-8.284-6.716-15-15-15h-145.667v-24.684h-30v24.684h-145.667c-8.284 0-15 6.716-15 15v48.2c0 8.284 6.716 15 15 15z"/><path d="m127.467 158.533h257.066c8.284 0 15-6.716 15-15v-128.533c0-8.284-6.716-15-15-15h-257.066c-8.284 0-15 6.716-15 15v128.533c0 8.285 6.716 15 15 15zm192.8-94.266c8.28 0 15 6.72 15 15s-6.72 15-15 15-15-6.72-15-15 6.72-15 15-15zm-64.267 0c8.28 0 15 6.72 15 15s-6.72 15-15 15-15-6.72-15-15 6.72-15 15-15zm-64.267 0c8.28 0 15 6.72 15 15s-6.72 15-15 15-15-6.72-15-15 6.72-15 15-15z"/></svg>